<svg width="284" height="291" viewBox="0 0 284 291" fill="none" xmlns="http://www.w3.org/2000/svg">
<g style="mix-blend-mode:multiply">
<path d="M194.964 102.659L193.839 101.049L137.432 20.2234L136.314 18.6138C135.799 17.8727 135.148 17.2455 134.4 16.7682C133.653 16.2909 132.822 15.9729 131.957 15.8325C131.091 15.692 130.208 15.7318 129.357 15.9496C128.507 16.1675 127.705 16.559 127 17.1018L125.25 18.4466L5.4557 110.135L3.69921 111.48C3.33411 111.756 2.99741 112.072 2.69455 112.421C2.49161 112.66 2.30486 112.914 2.13566 113.18C1.60021 114.003 1.23948 114.937 1.07778 115.919C1.07778 115.974 1.07778 116.03 1.04451 116.093C0.988871 116.513 0.966618 116.937 0.977978 117.361C0.977978 117.584 0.977977 117.807 1.0312 118.058C1.09151 118.505 1.19175 118.946 1.33061 119.375C1.55195 120.027 1.86354 120.642 2.25543 121.2L3.37319 122.803L35.3959 168.692L59.7805 203.636L60.8983 205.245C61.4141 205.986 62.0646 206.614 62.8124 207.091C63.5601 207.568 64.3905 207.886 65.2559 208.027C66.1213 208.167 67.0046 208.127 67.8553 207.909C68.706 207.692 69.5072 207.3 70.213 206.757L71.9695 205.419L191.764 113.724L193.52 112.386C194.942 111.295 195.892 109.659 196.163 107.835C196.434 106.012 196.002 104.15 194.964 102.659Z" fill="#CDDFFA"/>
</g>
<path d="M128.463 9.95281L126.707 11.2976L6.89273 102.993L5.13624 104.338C4.42856 104.878 3.82967 105.559 3.37391 106.343C2.91815 107.126 2.6145 107.995 2.48037 108.902C2.34623 109.808 2.38425 110.733 2.59225 111.624C2.80025 112.515 3.17413 113.354 3.69245 114.093L4.81688 115.696L61.2242 196.522L62.342 198.131C62.8578 198.872 63.5083 199.499 64.256 199.977C65.0038 200.454 65.8342 200.772 66.6996 200.912C67.565 201.053 68.4483 201.013 69.299 200.795C70.1497 200.577 70.9509 200.186 71.6567 199.643L73.4132 198.305L193.201 106.568L194.957 105.23C195.665 104.69 196.264 104.009 196.719 103.225C197.175 102.442 197.479 101.573 197.613 100.666C197.747 99.7602 197.709 98.8351 197.501 97.9442C197.293 97.0534 196.919 96.2143 196.401 95.4751L195.277 93.8655L138.869 13.0395L137.751 11.43C136.705 9.94662 135.14 8.9582 133.399 8.68131C131.658 8.40442 129.883 8.86165 128.463 9.95281Z" fill="#FF931D"/>
<path d="M192.076 104.979L70.4924 198.013C69.7865 198.556 68.9853 198.947 68.1347 199.165C67.284 199.383 66.4006 199.423 65.5353 199.282C64.6699 199.142 63.8395 198.824 63.0917 198.346C62.3439 197.869 61.6935 197.242 61.1777 196.501L3.69245 114.065C3.17413 113.326 2.80025 112.487 2.59225 111.596C2.38425 110.705 2.34623 109.78 2.48037 108.874C2.6145 107.967 2.91815 107.098 3.37391 106.315C3.82967 105.532 4.42856 104.85 5.13624 104.31L126.707 11.2976C127.413 10.7548 128.214 10.3633 129.065 10.1454C129.915 9.92761 130.799 9.88779 131.664 10.0283C132.529 10.1687 133.36 10.4867 134.107 10.964C134.855 11.4413 135.506 12.0685 136.022 12.8096L193.553 95.2522C194.588 96.7475 195.014 98.6119 194.737 100.436C194.46 102.26 193.503 103.894 192.076 104.979Z" fill="#FFB31A"/>
<path d="M98.8649 122.74C108.137 122.206 115.239 113.902 114.729 104.192C114.219 94.4823 106.289 87.0442 97.0172 87.5786C87.7456 88.113 80.6431 96.4174 81.1534 106.127C81.6636 115.837 89.5934 123.275 98.8649 122.74Z" fill="#FFC82E"/>
<g style="mix-blend-mode:multiply">
<path d="M258.244 138.968C258.939 137.701 259.131 136.198 258.779 134.784C258.427 133.37 257.559 132.158 256.361 131.408L245.183 124.496C247 121.27 245.01 116.518 240.739 113.877C236.467 111.236 231.504 111.703 229.714 114.929L218.537 108.017C217.331 107.28 215.898 107.069 214.545 107.429C213.192 107.789 212.028 108.69 211.304 109.94L185.596 94.0256L109.86 228.322L208.217 289.165L283.966 154.875L258.244 138.968Z" fill="#CDDFFA"/>
</g>
<path d="M282.049 146.31L183.667 85.4746L107.953 219.765L206.335 280.6L282.049 146.31Z" fill="#29477C"/>
<path d="M269.791 150.139L186.374 98.5576L120.199 215.928L203.616 267.51L269.791 150.139Z" fill="#FFE6CA"/>
<path d="M216.613 99.4642L254.426 122.846C255.641 123.598 256.522 124.824 256.874 126.256C257.226 127.688 257.02 129.207 256.303 130.48L251.195 139.54L204.238 110.504L209.363 101.414C210.081 100.141 211.252 99.2189 212.619 98.8502C213.986 98.4816 215.437 98.6967 216.653 99.4484L216.613 99.4642Z" fill="#0D1B35"/>
<path d="M243.239 115.929C245.057 112.704 243.068 107.949 238.796 105.308C234.524 102.667 229.588 103.139 227.77 106.363C225.952 109.587 227.941 114.342 232.213 116.984C236.485 119.625 241.421 119.153 243.239 115.929Z" fill="#0D1B35"/>
<g style="mix-blend-mode:multiply">
<path d="M200.546 8.643L198.344 4.7968C198.193 4.53354 197.995 4.30395 197.759 4.12116C197.524 3.93838 197.256 3.80598 196.972 3.73156C196.688 3.65713 196.392 3.64214 196.103 3.68743C195.813 3.73272 195.534 3.83741 195.283 3.99551L192.802 5.53538C192.549 5.69238 192.33 5.90008 192.155 6.14649C191.98 6.3929 191.853 6.67316 191.782 6.97111C191.711 7.26906 191.696 7.57881 191.74 7.8825C191.784 8.18619 191.885 8.47781 192.036 8.74055L194.232 12.5868L200.546 8.643Z" fill="#CDDFFA"/>
<path d="M201.877 12.5031L202.376 12.1895C202.417 12.1637 202.454 12.1294 202.483 12.0887C202.512 12.048 202.533 12.0017 202.545 11.9524C202.556 11.9032 202.559 11.8519 202.551 11.8017C202.544 11.7515 202.527 11.7033 202.502 11.66L200.919 8.87287C200.868 8.78594 200.786 8.72341 200.692 8.69866C200.597 8.67392 200.497 8.68893 200.413 8.74048L194.365 12.5031C194.323 12.5289 194.287 12.5631 194.258 12.6038C194.229 12.6445 194.208 12.6909 194.196 12.7401C194.184 12.7894 194.182 12.8406 194.189 12.8909C194.197 12.9411 194.213 12.9893 194.239 13.0326L195.822 15.8197C195.847 15.8635 195.879 15.9016 195.918 15.932C195.957 15.9624 196.001 15.9844 196.048 15.9967C196.095 16.009 196.144 16.0114 196.192 16.0038C196.24 15.9961 196.286 15.9785 196.328 15.9521L201.877 12.5031Z" fill="#CDDFFA"/>
<path d="M257.845 113.069L255.283 104.22L202.509 12.071L196.827 15.6385L196.195 16.0357L248.976 108.184L255.35 114.845L259.661 119.361L257.845 113.069Z" fill="#CDDFFA"/>
</g>
<path d="M249.702 106.641L256.1 102.833L205.401 9.40938L199.004 13.217L249.702 106.641Z" fill="#FFC82E"/>
<path d="M199.128 13.1534L205.266 9.50063C205.442 9.39605 205.503 9.16211 205.403 8.9781L203.878 6.16726C203.778 5.98325 203.555 5.91885 203.379 6.02343L197.242 9.67616C197.066 9.78073 197.004 10.0147 197.104 10.1987L198.63 13.0095C198.729 13.1935 198.953 13.2579 199.128 13.1534Z" fill="#FFF4E9"/>
<path d="M203.518 5.94263L197.12 9.75028L195.006 5.85509C194.858 5.58843 194.763 5.29376 194.724 4.9881C194.686 4.68243 194.706 4.37183 194.782 4.07422C194.859 3.77662 194.992 3.49791 195.172 3.25419C195.352 3.01046 195.577 2.80656 195.833 2.65424L198.355 1.15321C198.609 1.00175 198.89 0.904276 199.18 0.866335C199.471 0.828394 199.765 0.850735 200.048 0.932085C200.33 1.01343 200.594 1.1522 200.825 1.34045C201.056 1.52871 201.249 1.76277 201.394 2.02927L203.518 5.94263Z" fill="#D83E3A"/>
<path d="M254.478 103.99L255.542 103.356L204.765 9.78719L203.701 10.4206L254.478 103.99Z" fill="#FFB31A"/>
<path d="M252.447 105.198L253.512 104.564L202.735 10.9952L201.67 11.6287L252.447 105.198Z" fill="#FFB31A"/>
<path d="M250.439 106.439L251.503 105.805L200.711 12.245L199.647 12.8786L250.439 106.439Z" fill="#FFB31A"/>
<path d="M249.715 106.658C250.247 106.345 249.881 105.676 250.42 105.355C250.959 105.035 251.312 105.711 251.851 105.39C252.389 105.07 252.017 104.401 252.549 104.087C253.081 103.774 253.447 104.436 253.98 104.122C254.512 103.809 254.146 103.133 254.678 102.819C255.211 102.506 255.576 103.168 256.109 102.819L258.471 111.724L260.147 118.058L255.936 113.438L249.715 106.658Z" fill="#FFF4E9"/>
<path d="M255.936 113.473C256.243 112.961 256.662 112.533 257.16 112.226C257.569 111.978 258.021 111.819 258.49 111.759L260.167 118.092L255.936 113.473Z" fill="#0D1B35"/>
<g style="mix-blend-mode:multiply">
<path d="M157.025 55.9297L117.311 184.466L208.662 215.422L248.376 86.885L157.025 55.9297Z" fill="#FFF4E9"/>
</g>
<path d="M245.953 81.0264L154.602 50.071L114.888 178.608L206.239 209.563L245.953 81.0264Z" fill="#FFF4E9"/>
<path d="M182.028 66.6297L158.562 58.678L148.746 90.4459L172.212 98.3976L182.028 66.6297Z" fill="#D83E3A"/>
<path d="M166.029 65.1168C165.037 65.3164 164.095 65.729 163.262 66.3286C162.43 66.9282 161.725 67.7018 161.192 68.6007C159.768 71.0742 159.821 74.2933 158.131 76.5857C157.388 77.4883 156.538 78.289 155.603 78.9687C154.668 79.6461 153.868 80.5075 153.248 81.505C152.944 82.006 152.767 82.5801 152.735 83.1728C152.702 83.7654 152.814 84.357 153.061 84.8913C153.658 85.7982 154.505 86.4914 155.49 86.8771C158.674 88.4479 162.065 89.5095 165.55 90.0265C166.787 90.2858 168.064 90.2429 169.282 89.9011C170.046 89.5874 170.736 89.1043 171.305 88.4848C171.873 87.8654 172.307 87.1244 172.576 86.3127C173.084 84.6942 173.336 82.9996 173.321 81.2959C173.299 79.5928 173.466 77.8929 173.82 76.2304C174.113 75.1687 174.466 74.1263 174.878 73.1088C175.289 72.2322 175.559 71.2905 175.676 70.3217C175.757 69.4145 175.541 68.5055 175.064 67.7436C174.566 67.0413 173.867 66.5239 173.068 66.2665C172.413 66.0966 171.745 65.987 171.072 65.939C170.618 65.795 170.174 65.6205 169.741 65.4164C168.543 65.0153 167.272 64.9127 166.029 65.1168Z" fill="#1A0F24"/>
<path d="M168.637 87.6575C171.385 89.7478 170.081 99.0985 170.081 99.0985C170.081 99.0985 167.885 100.576 164.386 99.3633L168.637 87.6575Z" fill="#FFB31A"/>
<path d="M161.332 123.89L161.012 123.98C155.776 125.374 148.071 121.04 144.346 118.65L143.8 118.288C142.775 117.591 142.17 117.166 142.17 117.166C142.223 116.964 142.29 116.741 142.37 116.469L142.403 116.351C142.529 115.967 142.669 115.542 142.835 115.076C143.055 114.442 143.328 113.731 143.614 112.985C143.767 112.588 143.92 112.177 144.093 111.752C144.359 111.055 144.632 110.393 144.924 109.662C145.084 109.257 145.257 108.846 145.423 108.435C145.703 107.739 145.989 107.077 146.288 106.345C146.455 105.941 146.628 105.53 146.801 105.126C147.087 104.429 147.38 103.732 147.672 103.07C147.839 102.666 148.025 102.255 148.198 101.858L149.083 99.7674L149.608 98.569C149.881 97.9349 150.154 97.3148 150.427 96.6946C150.46 96.6319 150.487 96.5692 150.513 96.5065L150.733 95.9978C150.839 95.7609 150.939 95.531 151.046 95.3011L151.179 94.9875C151.285 94.7437 151.385 94.5068 151.491 94.2907C151.638 93.9563 151.784 93.594 151.924 93.3013C152.03 93.0644 152.137 92.8345 152.236 92.6046C152.336 92.3746 152.39 92.2631 152.463 92.0959L152.669 91.6221C152.789 91.3643 152.902 91.1135 153.002 90.8626C153.101 90.6118 153.254 90.3052 153.374 90.0404L153.514 89.7338C153.647 89.4272 153.78 89.1346 153.913 88.835L154.838 86.7865C155.038 86.3545 155.224 85.9434 155.384 85.5811C155.889 84.4592 156.229 83.7276 156.315 83.5256V83.4907H160.853L164.905 84.8843L165.497 85.3441L165.616 85.4278L166.282 85.9225L166.521 86.1106L167.885 87.1488L168.125 87.33L168.597 87.6923C168.594 87.7456 168.594 87.7992 168.597 87.8525C168.484 88.5145 168.358 89.2461 168.205 90.0962C168.131 90.5212 168.052 90.9532 167.972 91.3991C167.845 92.0959 167.712 92.8624 167.559 93.6427C167.473 94.0678 167.393 94.4998 167.313 94.9387C167.313 95.0433 167.273 95.1338 167.253 95.2314C167.207 95.4892 167.147 95.74 167.107 95.9909C167.067 96.2417 166.967 96.6877 166.901 97.036C166.904 97.0801 166.904 97.1244 166.901 97.1684C166.904 97.1939 166.904 97.2196 166.901 97.2451C166.867 97.4402 166.827 97.6144 166.801 97.8025C166.774 97.9906 166.708 98.2484 166.661 98.4993C166.661 98.6177 166.608 98.7431 166.581 98.8686C166.541 99.1264 166.488 99.3912 166.435 99.649C166.382 99.9068 166.288 100.346 166.222 100.687V100.722C166.162 100.973 166.115 101.224 166.069 101.468L165.949 102.025C165.843 102.561 165.736 103.112 165.623 103.648L165.503 104.248C165.41 104.673 165.33 105.105 165.237 105.537L164.778 107.759C164.685 108.198 164.598 108.63 164.505 109.055C164.346 109.808 164.199 110.547 164.04 111.271C163.986 111.571 163.92 111.863 163.86 112.163C163.86 112.295 163.8 112.435 163.773 112.56C163.614 113.327 163.461 114.065 163.314 114.783C163.221 115.222 163.128 115.654 163.042 116.072C162.875 116.852 162.716 117.598 162.576 118.281C162.476 118.741 162.383 119.166 162.29 119.577C162.117 120.42 161.957 121.165 161.824 121.792C161.711 122.308 161.624 122.74 161.545 123.082L161.332 123.89Z" fill="#FFB31A"/>
<path d="M156.369 83.4978C153.947 83.4978 145.277 91.1623 145.277 91.1623C145.277 91.1623 147.333 96.0398 149.715 98.8269L152.663 95.4196L156.369 83.4978Z" fill="#FFB31A"/>
<path d="M172.011 78.697C171.49 80.0086 170.502 81.0559 169.256 81.6165C168.7 81.8478 168.131 82.0432 167.553 82.2018C166.329 82.592 165.557 82.9683 164.805 85.3791C164.502 85.7461 164.102 86.0116 163.656 86.1425C163.21 86.2734 162.737 86.2641 162.296 86.1155C161.855 85.967 161.465 85.6859 161.175 85.3071C160.886 84.9284 160.709 84.4688 160.667 83.9856C161.426 81.5872 161.786 79.0701 161.731 76.544C161.731 76.119 161.698 75.8472 161.684 75.7218C161.683 75.7032 161.683 75.6846 161.684 75.666C161.684 75.666 161.857 75.1574 162.124 74.4119C162.157 74.3213 162.19 74.2237 162.23 74.1331C162.862 72.3982 163.94 69.6947 164.752 68.8864C167.726 65.9391 173.913 69.3881 173.547 72.4121C173.357 74.5793 172.838 76.7008 172.011 78.697Z" fill="#FEA384"/>
<path d="M173.454 74.1401C172.301 73.0483 171.546 71.5703 171.319 69.9594C171.12 70.3567 170.805 70.6767 170.42 70.8722C169.161 71.6558 167.712 72.0383 166.249 71.9731C165.761 72.7663 165.072 73.4011 164.258 73.8061C163.445 74.2111 162.54 74.3702 161.645 74.2655C161.951 72.6072 162.01 70.8931 162.782 69.3881C163.139 68.6284 163.644 67.9551 164.264 67.4116C164.883 66.868 165.605 66.4661 166.382 66.2317C167.301 66.0375 168.251 66.0709 169.156 66.3292C170.834 66.6857 172.326 67.6782 173.348 69.1163C173.837 69.8492 174.108 70.7173 174.127 71.6113C174.146 72.5054 173.912 73.3852 173.454 74.1401Z" fill="#1A0F24"/>
<path d="M170.56 75.0529C170.875 74.9506 171.213 74.964 171.519 75.0907C171.825 75.2174 172.081 75.4499 172.243 75.7497C172.275 75.8114 172.285 75.8829 172.272 75.9517C172.259 76.0204 172.223 76.0821 172.17 76.1259C172.147 76.1466 172.119 76.1618 172.089 76.1703C172.06 76.1788 172.029 76.1804 171.998 76.1751C171.968 76.1698 171.939 76.1577 171.914 76.1396C171.888 76.1215 171.867 76.0978 171.851 76.0702C171.777 75.9457 171.68 75.8379 171.566 75.7529C171.451 75.668 171.322 75.6077 171.186 75.5755C171.052 75.5442 170.913 75.5442 170.78 75.5755C170.653 75.5755 170.527 75.6521 170.427 75.5406C170.404 75.5128 170.388 75.4792 170.381 75.4431C170.367 75.4052 170.361 75.3648 170.363 75.3243C170.364 75.2839 170.374 75.2442 170.391 75.2078C170.407 75.1713 170.431 75.1388 170.46 75.1121C170.489 75.0855 170.523 75.0654 170.56 75.0529Z" fill="#1A0F24"/>
<path d="M168.917 74.5163C168.677 74.2231 168.358 74.0115 168.003 73.9085C167.647 73.8055 167.271 73.8158 166.921 73.938C166.888 73.9503 166.859 73.9692 166.833 73.9936C166.808 74.018 166.788 74.0473 166.773 74.08C166.758 74.1127 166.75 74.148 166.749 74.184C166.747 74.22 166.753 74.256 166.764 74.2898C166.776 74.3237 166.794 74.3548 166.818 74.3813C166.841 74.4079 166.869 74.4294 166.9 74.4446C166.931 74.4598 166.965 74.4684 166.999 74.47C167.034 74.4715 167.068 74.4659 167.1 74.4536C167.395 74.3557 167.712 74.3681 167.999 74.4884C168.145 74.5468 168.28 74.6317 168.398 74.7393C168.498 74.8298 168.591 74.9622 168.744 74.9413C168.782 74.9348 168.818 74.9206 168.85 74.8995C168.907 74.8574 168.946 74.7937 168.958 74.7221C168.97 74.6505 168.956 74.5766 168.917 74.5163Z" fill="#1A0F24"/>
<path d="M168.491 79.0313C168.734 79.1138 168.992 79.1329 169.243 79.087C169.273 79.082 169.302 79.0707 169.327 79.0539C169.353 79.037 169.375 79.015 169.392 78.989C169.41 78.963 169.422 78.9336 169.428 78.9026C169.435 78.8715 169.435 78.8395 169.429 78.8083C169.419 78.7446 169.386 78.6876 169.336 78.6497C169.286 78.6118 169.224 78.5962 169.163 78.6063C168.908 78.6482 168.647 78.6031 168.418 78.4776C168.189 78.3522 168.005 78.153 167.892 77.9095C167.887 77.8749 167.874 77.842 167.856 77.8129C167.837 77.7839 167.813 77.7594 167.784 77.7411C167.756 77.7228 167.724 77.7111 167.691 77.7069C167.657 77.7026 167.624 77.7059 167.592 77.7166C167.56 77.7272 167.531 77.7448 167.506 77.7684C167.481 77.7919 167.462 77.8208 167.448 77.8529C167.435 77.8851 167.429 77.9199 167.43 77.9549C167.431 77.9899 167.439 78.0243 167.453 78.0558C167.548 78.2876 167.69 78.495 167.869 78.6635C168.049 78.832 168.261 78.9575 168.491 79.0313Z" fill="#C16B5B"/>
<path d="M169.416 77.8956C169.424 77.903 169.435 77.9071 169.446 77.9071C169.457 77.9071 169.467 77.903 169.476 77.8956C169.702 77.5542 169.616 77.387 169.509 77.3034C169.439 77.2621 169.361 77.2365 169.281 77.2281C169.201 77.2197 169.12 77.2288 169.043 77.2546C169.028 77.2594 169.015 77.2698 169.007 77.2839C168.998 77.298 168.995 77.3148 168.997 77.3313C169.001 77.3468 169.012 77.3599 169.025 77.3677C169.039 77.3755 169.055 77.3774 169.07 77.3731C169.129 77.347 169.192 77.3336 169.256 77.3336C169.32 77.3336 169.384 77.347 169.443 77.3731C169.536 77.4497 169.516 77.596 169.383 77.8051C169.377 77.8103 169.372 77.8167 169.369 77.8239C169.366 77.8311 169.365 77.839 169.365 77.8469C169.365 77.8548 169.366 77.8626 169.369 77.8698C169.372 77.877 169.377 77.8834 169.383 77.8887L169.416 77.8956Z" fill="#C16B5B"/>
<path d="M167.2 75.6312C167.174 75.7152 167.172 75.8056 167.194 75.8908C167.217 75.976 167.263 76.0522 167.328 76.1097C167.392 76.1672 167.471 76.2034 167.555 76.2138C167.639 76.2241 167.724 76.2081 167.799 76.1677C167.874 76.1274 167.936 76.0646 167.977 75.9872C168.018 75.9099 168.036 75.8215 168.029 75.7333C168.022 75.6452 167.99 75.5613 167.937 75.4922C167.884 75.4232 167.813 75.3721 167.732 75.3455C167.626 75.3103 167.51 75.3206 167.41 75.374C167.311 75.4275 167.235 75.5199 167.2 75.6312Z" fill="black"/>
<path d="M167.632 75.6521C167.626 75.6723 167.624 75.6935 167.626 75.7145C167.627 75.7356 167.633 75.7561 167.642 75.7749C167.651 75.7937 167.664 75.8104 167.68 75.824C167.695 75.8376 167.713 75.8479 167.732 75.8542C167.751 75.8617 167.772 75.865 167.792 75.8637C167.813 75.8624 167.833 75.8567 167.851 75.8468C167.869 75.837 167.885 75.8232 167.898 75.8065C167.911 75.7898 167.92 75.7704 167.925 75.7497C167.931 75.7296 167.934 75.7084 167.932 75.6873C167.93 75.6663 167.924 75.6458 167.915 75.627C167.906 75.6082 167.893 75.5916 167.878 75.5779C167.862 75.5643 167.845 75.554 167.825 75.5476C167.806 75.5412 167.786 75.5388 167.766 75.5406C167.746 75.5424 167.726 75.5483 167.708 75.558C167.69 75.5677 167.674 75.581 167.661 75.5972C167.648 75.6133 167.639 75.632 167.632 75.6521Z" fill="white"/>
<path d="M170.294 76.6832C170.26 76.795 170.27 76.9162 170.321 77.0205C170.372 77.1248 170.461 77.2039 170.567 77.2406C170.62 77.259 170.676 77.2662 170.731 77.2617C170.787 77.2573 170.841 77.2413 170.89 77.2147C170.94 77.1881 170.984 77.1514 171.02 77.1068C171.056 77.0622 171.083 77.0106 171.099 76.9549C171.124 76.8977 171.137 76.8356 171.138 76.7726C171.138 76.7097 171.126 76.6474 171.101 76.5898C171.077 76.5322 171.042 76.4806 170.997 76.4385C170.952 76.3963 170.9 76.3645 170.842 76.3452C170.785 76.3259 170.725 76.3195 170.665 76.3264C170.605 76.3333 170.548 76.3534 170.496 76.3854C170.444 76.4173 170.399 76.4603 170.365 76.5117C170.33 76.563 170.306 76.6215 170.294 76.6832Z" fill="black"/>
<path d="M170.746 76.7041C170.734 76.7448 170.738 76.7889 170.756 76.8268C170.775 76.8647 170.807 76.8932 170.846 76.9062C170.885 76.9191 170.927 76.9154 170.963 76.8958C171 76.8762 171.027 76.8423 171.039 76.8017C171.045 76.7815 171.048 76.7603 171.046 76.7393C171.044 76.7182 171.039 76.6978 171.029 76.679C171.02 76.6602 171.007 76.6436 170.992 76.6299C170.976 76.6163 170.959 76.606 170.939 76.5996C170.92 76.5932 170.9 76.5908 170.88 76.5926C170.86 76.5944 170.84 76.6003 170.822 76.61C170.804 76.6197 170.788 76.633 170.775 76.6492C170.762 76.6653 170.753 76.684 170.746 76.7041Z" fill="white"/>
<path d="M160.201 75.2966C160.349 75.504 160.549 75.664 160.779 75.7589C161.009 75.8538 161.259 75.8798 161.503 75.8339C161.746 75.7879 161.972 75.672 162.156 75.499C162.34 75.326 162.474 75.1028 162.544 74.8544C162.613 74.606 162.615 74.3423 162.55 74.0927C162.484 73.8432 162.353 73.6177 162.172 73.4415C161.991 73.2653 161.767 73.1454 161.524 73.0953C161.282 73.0451 161.031 73.0667 160.8 73.1575C160.452 73.3604 160.194 73.6984 160.082 74.0986C159.97 74.4988 160.012 74.9291 160.201 75.2966Z" fill="#FEA384"/>
<path d="M161.065 73.6244C161.219 73.6053 161.375 73.623 161.522 73.6761C161.668 73.7292 161.801 73.8163 161.91 73.931C162.024 74.0306 162.109 74.1607 162.157 74.3072C162.182 74.3888 162.189 74.4756 162.176 74.5603C162.163 74.6451 162.132 74.7255 162.083 74.795C161.995 74.8955 161.882 74.9699 161.757 75.011C161.682 75.0322 161.611 75.0703 161.551 75.1225C161.51 75.1606 161.481 75.2115 161.469 75.2679C161.457 75.3242 161.462 75.3831 161.485 75.436C161.508 75.4876 161.547 75.5305 161.594 75.5591C161.642 75.5877 161.696 75.6006 161.751 75.5963C161.781 75.5963 161.81 75.6088 161.831 75.631C161.852 75.6532 161.864 75.6833 161.864 75.7147C161.864 75.7462 161.852 75.7763 161.831 75.7985C161.81 75.8207 161.781 75.8332 161.751 75.8332C161.685 75.8473 161.617 75.8473 161.551 75.8332C161.467 75.808 161.392 75.7596 161.332 75.6931C161.272 75.6267 161.23 75.5446 161.211 75.4555C161.192 75.3665 161.197 75.2737 161.224 75.1869C161.251 75.1001 161.299 75.0225 161.365 74.9622C161.449 74.8931 161.543 74.8389 161.644 74.802C161.731 74.778 161.811 74.7326 161.877 74.6696C161.901 74.6295 161.916 74.5844 161.922 74.5375C161.928 74.4906 161.924 74.443 161.91 74.3978C161.896 74.3579 161.875 74.3204 161.851 74.2863C161.795 74.262 161.735 74.2495 161.674 74.2495C161.614 74.2495 161.554 74.262 161.498 74.2863C161.446 74.3187 161.402 74.3621 161.367 74.4138C161.333 74.4654 161.309 74.5241 161.298 74.586C161.297 74.6016 161.292 74.6167 161.285 74.6304C161.278 74.6441 161.268 74.6562 161.256 74.6659C161.244 74.6756 161.231 74.6828 161.216 74.687C161.202 74.6913 161.187 74.6924 161.172 74.6905C161.145 74.6824 161.123 74.6644 161.108 74.6401C161.093 74.6157 161.088 74.5866 161.092 74.5581C161.108 74.4591 161.144 74.3649 161.198 74.2819C161.252 74.1989 161.323 74.1291 161.405 74.0773C161.469 74.0451 161.539 74.0261 161.611 74.0216C161.463 73.9092 161.28 73.8594 161.099 73.8822C160.991 73.9004 160.893 73.9581 160.823 74.0449C160.752 74.1317 160.713 74.2419 160.713 74.356C160.715 74.3716 160.714 74.3874 160.71 74.4025C160.705 74.4176 160.699 74.4318 160.689 74.4441C160.68 74.4564 160.669 74.4667 160.655 74.4743C160.642 74.4819 160.628 74.4867 160.613 74.4884C160.583 74.4906 160.554 74.4811 160.531 74.4617C160.507 74.4424 160.491 74.4147 160.487 74.3839C160.47 74.2033 160.521 74.0229 160.629 73.881C160.737 73.7392 160.894 73.6471 161.065 73.6244Z" fill="#C16B5B"/>
<path d="M185.956 73.6025L185.194 76.0686L223.897 89.1835L224.659 86.7174L185.956 73.6025Z" fill="#FFC82E"/>
<path d="M182.926 83.4091L182.164 85.8752L229.875 102.043L230.637 99.5764L182.926 83.4091Z" fill="#FFC82E"/>
<path d="M184.364 78.7617L183.603 81.2278L207.354 89.276L208.116 86.8099L184.364 78.7617Z" fill="#FFC82E"/>
<path d="M210.992 87.7853L210.23 90.2515L233.981 98.2997L234.743 95.8336L210.992 87.7853Z" fill="#FFC82E"/>
<path d="M181.799 88.6204L181.032 91.0828L194.205 95.5842L194.972 93.1218L181.799 88.6204Z" fill="#FFC82E"/>
<path d="M217.247 105.3L216.485 107.766L229.678 112.237L230.44 109.771L217.247 105.3Z" fill="#FFC82E"/>
<path d="M180.061 92.6962L179.299 95.1624L212.426 106.387L213.187 103.921L180.061 92.6962Z" fill="#FFC82E"/>
<path d="M197.356 93.4279L196.594 95.894L231.113 107.591L231.875 105.125L197.356 93.4279Z" fill="#FFC82E"/>
<path d="M150.566 108.261C149.729 107.978 148.992 107.441 148.447 106.719C147.901 105.997 147.573 105.122 147.503 104.204C147.432 103.286 147.623 102.367 148.052 101.564C148.48 100.76 149.127 100.107 149.909 99.6878C150.692 99.2687 151.576 99.1021 152.449 99.209C153.322 99.316 154.145 99.6917 154.815 100.289C155.484 100.886 155.969 101.677 156.209 102.563C156.448 103.448 156.432 104.389 156.161 105.265C155.799 106.439 155.005 107.414 153.956 107.976C152.907 108.538 151.687 108.64 150.566 108.261ZM152.994 100.429C152.351 100.21 151.66 100.195 151.009 100.388C150.357 100.58 149.775 100.97 149.336 101.509C148.896 102.048 148.619 102.711 148.54 103.415C148.461 104.118 148.582 104.831 148.89 105.462C149.197 106.093 149.677 106.615 150.267 106.961C150.858 107.306 151.533 107.461 152.207 107.405C152.882 107.349 153.525 107.084 154.056 106.645C154.587 106.206 154.982 105.611 155.19 104.937C155.469 104.034 155.394 103.053 154.983 102.208C154.571 101.362 153.856 100.723 152.994 100.429Z" fill="#F7D4AA"/>
<path d="M151.444 105.404C151.314 105.358 151.206 105.261 151.145 105.132L149.881 102.485C149.826 102.36 149.82 102.219 149.862 102.089C149.904 101.96 149.991 101.852 150.107 101.788C150.226 101.733 150.36 101.726 150.484 101.77C150.607 101.814 150.71 101.905 150.772 102.025L151.823 104.226L157.652 101.69C157.774 101.652 157.906 101.663 158.022 101.72C158.137 101.777 158.229 101.877 158.278 102.001C158.327 102.124 158.332 102.263 158.29 102.389C158.248 102.516 158.163 102.622 158.051 102.687L151.784 105.411C151.673 105.449 151.553 105.446 151.444 105.404Z" fill="#FF931D"/>
<path d="M162.262 103.559L161.853 104.885L222.901 125.572L223.311 124.246L162.262 103.559Z" fill="#FF931D"/>
<path d="M180.977 112.933L180.567 114.259L222.062 128.32L222.472 126.994L180.977 112.933Z" fill="#FF931D"/>
<path d="M160.574 109.052L160.164 110.378L197.829 123.141L198.239 121.815L160.574 109.052Z" fill="#FF931D"/>
<path d="M178.721 112.172L161.434 106.313L161.024 107.639L178.312 113.498L178.721 112.172Z" fill="#FF931D"/>
<path d="M221.626 129.736L200.097 122.441L199.688 123.767L221.217 131.062L221.626 129.736Z" fill="#FF931D"/>
<path d="M145.743 123.862C144.907 123.578 144.17 123.04 143.626 122.318C143.082 121.595 142.754 120.72 142.685 119.803C142.615 118.885 142.807 117.967 143.236 117.164C143.665 116.36 144.311 115.708 145.094 115.29C145.877 114.871 146.76 114.705 147.633 114.812C148.506 114.919 149.328 115.295 149.997 115.892C150.666 116.488 151.151 117.279 151.391 118.165C151.631 119.05 151.615 119.99 151.345 120.866C150.979 122.039 150.184 123.014 149.134 123.575C148.084 124.137 146.865 124.24 145.743 123.862ZM148.164 116.023C147.521 115.805 146.83 115.792 146.179 115.985C145.528 116.179 144.947 116.57 144.508 117.109C144.07 117.648 143.794 118.312 143.715 119.016C143.637 119.719 143.76 120.431 144.068 121.062C144.376 121.693 144.855 122.213 145.446 122.559C146.037 122.904 146.712 123.058 147.386 123.001C148.061 122.944 148.704 122.679 149.234 122.239C149.765 121.8 150.159 121.205 150.367 120.531C150.645 119.628 150.57 118.645 150.157 117.8C149.744 116.954 149.027 116.315 148.164 116.023Z" fill="#F7D4AA"/>
<path d="M146.627 121.005C146.562 120.984 146.502 120.948 146.451 120.902C146.399 120.855 146.357 120.798 146.328 120.733L145.057 118.086C144.996 117.958 144.986 117.81 145.029 117.675C145.072 117.54 145.165 117.428 145.287 117.364C145.408 117.301 145.549 117.29 145.679 117.335C145.808 117.38 145.914 117.477 145.975 117.605L147.007 119.807L152.835 117.27C152.898 117.239 152.966 117.221 153.035 117.218C153.105 117.215 153.175 117.227 153.24 117.252C153.305 117.278 153.364 117.318 153.414 117.369C153.464 117.42 153.503 117.481 153.53 117.548C153.557 117.615 153.57 117.688 153.569 117.761C153.568 117.833 153.553 117.905 153.525 117.972C153.497 118.039 153.456 118.099 153.405 118.148C153.353 118.198 153.293 118.236 153.227 118.26L147.007 120.991C146.886 121.044 146.751 121.049 146.627 121.005Z" fill="#FF931D"/>
<path d="M157.446 119.168L157.036 120.494L218.085 141.181L218.495 139.855L157.446 119.168Z" fill="#FF931D"/>
<path d="M176.154 128.535L175.745 129.861L217.239 143.921L217.649 142.596L176.154 128.535Z" fill="#FF931D"/>
<path d="M155.764 124.668L155.354 125.993L193.019 138.757L193.429 137.431L155.764 124.668Z" fill="#FF931D"/>
<path d="M173.899 127.766L156.611 121.908L156.202 123.234L173.49 129.092L173.899 127.766Z" fill="#FF931D"/>
<path d="M216.815 145.34L195.286 138.044L194.876 139.37L216.406 146.666L216.815 145.34Z" fill="#FF931D"/>
<path d="M140.925 139.463C140.089 139.179 139.351 138.643 138.806 137.921C138.261 137.199 137.932 136.323 137.862 135.406C137.792 134.488 137.983 133.569 138.411 132.765C138.84 131.961 139.486 131.309 140.269 130.889C141.052 130.47 141.935 130.304 142.808 130.411C143.682 130.518 144.505 130.893 145.174 131.49C145.843 132.087 146.328 132.879 146.568 133.764C146.808 134.65 146.791 135.59 146.521 136.466C146.156 137.64 145.363 138.614 144.314 139.175C143.265 139.737 142.047 139.84 140.925 139.463ZM143.347 131.652C142.704 131.432 142.013 131.418 141.361 131.61C140.71 131.802 140.128 132.193 139.688 132.731C139.249 133.27 138.972 133.933 138.893 134.637C138.813 135.341 138.935 136.053 139.242 136.685C139.55 137.316 140.029 137.837 140.62 138.183C141.21 138.529 141.886 138.684 142.56 138.627C143.235 138.571 143.878 138.307 144.409 137.868C144.94 137.428 145.334 136.834 145.543 136.16C145.822 135.257 145.747 134.275 145.335 133.43C144.924 132.585 144.209 131.945 143.347 131.652Z" fill="#F7D4AA"/>
<path d="M141.803 136.606C141.673 136.56 141.565 136.462 141.504 136.334L140.24 133.686C140.21 133.623 140.192 133.554 140.187 133.484C140.182 133.413 140.191 133.343 140.212 133.276C140.233 133.209 140.267 133.147 140.311 133.094C140.355 133.04 140.409 132.997 140.469 132.965C140.53 132.933 140.595 132.915 140.662 132.91C140.73 132.905 140.797 132.914 140.861 132.936C140.925 132.958 140.984 132.993 141.035 133.04C141.086 133.086 141.128 133.142 141.158 133.205L142.209 135.407L148.031 132.871C148.156 132.816 148.297 132.814 148.423 132.868C148.549 132.922 148.65 133.025 148.703 133.157C148.756 133.288 148.757 133.436 148.706 133.568C148.654 133.7 148.555 133.805 148.43 133.86L142.163 136.592C142.048 136.638 141.921 136.643 141.803 136.606Z" fill="#FF931D"/>
<path d="M152.631 134.762L152.222 136.088L213.271 156.775L213.68 155.449L152.631 134.762Z" fill="#FF931D"/>
<path d="M171.333 144.129L170.924 145.455L212.419 159.516L212.828 158.19L171.333 144.129Z" fill="#FF931D"/>
<path d="M150.93 140.246L150.521 141.572L188.185 154.335L188.595 153.009L150.93 140.246Z" fill="#FF931D"/>
<path d="M169.082 143.369L151.794 137.511L151.384 138.837L168.672 144.695L169.082 143.369Z" fill="#FF931D"/>
<path d="M211.992 160.941L190.462 153.646L190.053 154.971L211.582 162.267L211.992 160.941Z" fill="#FF931D"/>
<path d="M209.083 170.353L153.573 151.543L153.065 153.188L208.575 171.998L209.083 170.353Z" fill="#D83E3A"/>
<path d="M207.844 174.372L133.273 149.103L132.765 150.747L207.336 176.016L207.844 174.372Z" fill="#D83E3A"/>
<path d="M176.078 168.048L132.032 153.122L131.524 154.766L175.57 169.692L176.078 168.048Z" fill="#D83E3A"/>
<path d="M205.363 182.407L130.793 157.138L130.285 158.782L204.855 184.051L205.363 182.407Z" fill="#D83E3A"/>
<path d="M204.116 186.421L170.807 175.134L170.299 176.778L203.608 188.065L204.116 186.421Z" fill="#D83E3A"/>
<path d="M202.876 190.442L128.306 165.173L127.798 166.817L202.368 192.086L202.876 190.442Z" fill="#D83E3A"/>
<path d="M181.289 187.558L127.07 169.186L126.562 170.83L180.781 189.202L181.289 187.558Z" fill="#D83E3A"/>
<path d="M201.644 194.454L184.603 188.679L184.095 190.324L201.136 196.098L201.644 194.454Z" fill="#D83E3A"/>
<path d="M165.23 173.238L129.553 161.149L129.045 162.793L164.723 174.882L165.23 173.238Z" fill="#D83E3A"/>
<path d="M206.606 178.391L179.398 169.171L178.89 170.815L206.098 180.035L206.606 178.391Z" fill="#D83E3A"/>
<g style="mix-blend-mode:multiply">
<path d="M94.478 219.968L11.9694 197.985L0 247.24L82.5086 269.23L91.7967 230.998L94.478 219.968Z" fill="#CDDFFA"/>
</g>
<path d="M17.4779 194.563L5.50586 243.823L88.012 265.815L99.984 216.556L17.4779 194.563Z" fill="#FF931D"/>
<path d="M5.50928 243.819L53.6199 226.601L88.0178 265.809L5.50928 243.819Z" fill="#FFB31A"/>
<g style="mix-blend-mode:multiply">
<path d="M14.7974 205.587L50.8454 238.022L97.3059 227.577L14.7974 205.587Z" fill="#FFC82E"/>
</g>
<path d="M99.9872 216.547L97.3059 227.577L51.4708 235.45L14.7974 205.587L17.4787 194.557L99.9872 216.547Z" fill="#FFC82E"/>
<g style="mix-blend-mode:multiply">
<path d="M120.111 118.691L32.0752 161.292L86.7269 285.157L174.763 242.557L120.111 118.691Z" fill="#FFF4E9"/>
</g>
<path d="M117.473 123.706L29.4375 166.306L84.0892 290.172L172.125 247.572L117.473 123.706Z" fill="#FFF4E9"/>
<path d="M64.5044 212.373C63.6988 212.761 62.8015 212.891 61.9256 212.746C61.0497 212.6 60.2345 212.187 59.5827 211.557C58.9309 210.928 58.4717 210.11 58.2629 209.207C58.0542 208.305 58.1053 207.358 58.4097 206.485C58.7142 205.613 59.2584 204.855 59.9738 204.306C60.6891 203.757 61.5436 203.443 62.4295 203.402C63.3154 203.361 64.1931 203.595 64.9519 204.076C65.7107 204.556 66.3166 205.261 66.6934 206.102C66.9442 206.664 67.0866 207.273 67.1123 207.892C67.138 208.512 67.0466 209.131 66.8432 209.714C66.6398 210.297 66.3285 210.832 65.9271 211.288C65.5257 211.744 65.0423 212.113 64.5044 212.373ZM61.1777 204.813C60.5579 205.114 60.0371 205.6 59.6812 206.21C59.3252 206.82 59.1501 207.528 59.1779 208.242C59.2058 208.957 59.4354 209.647 59.8376 210.225C60.2399 210.803 60.7968 211.243 61.4379 211.49C62.079 211.736 62.7755 211.778 63.4394 211.61C64.1032 211.442 64.7046 211.072 65.1674 210.546C65.6302 210.02 65.9338 209.362 66.0396 208.655C66.1454 207.949 66.0488 207.225 65.7619 206.576C65.5714 206.145 65.3018 205.758 64.9683 205.436C64.6348 205.114 64.2441 204.864 63.8184 204.7C63.3928 204.537 62.9405 204.462 62.4874 204.482C62.0343 204.501 61.5892 204.614 61.1777 204.813Z" fill="#F7D4AA"/>
<path d="M63.2999 209.621C63.2371 209.65 63.1691 209.665 63.1003 209.665C63.0316 209.665 62.9636 209.65 62.9007 209.621L60.2394 208.569C60.1756 208.544 60.1172 208.505 60.0674 208.457C60.0177 208.408 59.9776 208.349 59.9495 208.284C59.9214 208.219 59.9058 208.149 59.9036 208.078C59.9014 208.006 59.9126 207.935 59.9366 207.868C59.9607 207.802 59.997 207.74 60.0436 207.688C60.0902 207.636 60.1462 207.594 60.2083 207.565C60.2704 207.535 60.3374 207.519 60.4055 207.517C60.4736 207.515 60.5415 207.526 60.6053 207.551L62.8209 208.429L65.4822 202.367C65.5412 202.244 65.6424 202.148 65.7656 202.099C65.8888 202.05 66.0252 202.051 66.1476 202.103C66.2666 202.163 66.359 202.269 66.406 202.398C66.453 202.528 66.451 202.671 66.4004 202.799L63.5328 209.321C63.4952 209.449 63.4117 209.556 63.2999 209.621Z" fill="#FF931D"/>
<path d="M128.969 172.017L70.1411 200.483L70.7048 201.761L129.532 173.294L128.969 172.017Z" fill="#FF931D"/>
<path d="M130.138 174.657L90.1543 194.005L90.718 195.283L130.701 175.935L130.138 174.657Z" fill="#FF931D"/>
<path d="M108.771 188.206L72.4775 205.768L73.0413 207.046L109.334 189.484L108.771 188.206Z" fill="#FF931D"/>
<path d="M87.9644 195.067L71.3066 203.128L71.8704 204.406L88.5281 196.345L87.9644 195.067Z" fill="#FF931D"/>
<path d="M131.303 177.297L110.557 187.336L111.12 188.614L131.867 178.575L131.303 177.297Z" fill="#FF931D"/>
<path d="M71.1582 227.41C70.3526 227.798 69.4553 227.927 68.5794 227.782C67.7035 227.637 66.8883 227.223 66.2365 226.594C65.5847 225.964 65.1255 225.146 64.9167 224.244C64.708 223.341 64.7591 222.394 65.0635 221.522C65.368 220.65 65.9122 219.891 66.6276 219.342C67.3429 218.794 68.1974 218.479 69.0833 218.438C69.9693 218.397 70.8469 218.632 71.6057 219.112C72.3645 219.593 72.9705 220.298 73.3472 221.139C73.5981 221.701 73.7404 222.309 73.7661 222.929C73.7919 223.549 73.7004 224.168 73.497 224.75C73.2936 225.333 72.9823 225.868 72.5809 226.324C72.1796 226.781 71.6961 227.149 71.1582 227.41ZM67.8315 219.856C67.2116 220.156 66.6905 220.642 66.3341 221.252C65.9777 221.862 65.8019 222.569 65.8291 223.283C65.8562 223.998 66.085 224.688 66.4865 225.266C66.8881 225.844 67.4444 226.285 68.085 226.533C68.7257 226.78 69.422 226.823 70.0859 226.656C70.7499 226.489 71.3516 226.119 71.8151 225.594C72.2786 225.069 72.5831 224.412 72.69 223.706C72.7969 222.999 72.7014 222.276 72.4157 221.626C72.0309 220.756 71.3322 220.081 70.4729 219.749C69.6136 219.417 68.6637 219.456 67.8315 219.856Z" fill="#F7D4AA"/>
<path d="M69.9341 224.657C69.8709 224.685 69.803 224.699 69.7345 224.699C69.666 224.699 69.5982 224.685 69.5349 224.657L66.8736 223.598C66.7461 223.547 66.6433 223.445 66.5872 223.314C66.5312 223.184 66.5265 223.035 66.5742 222.901C66.5978 222.835 66.6338 222.774 66.6802 222.722C66.7266 222.67 66.7823 222.628 66.8442 222.599C66.9061 222.57 66.9729 222.554 67.0408 222.552C67.1087 222.55 67.1762 222.562 67.2395 222.588L69.4617 223.459L72.1231 217.397C72.1813 217.266 72.2869 217.164 72.4167 217.114C72.5465 217.065 72.6898 217.071 72.815 217.132C72.9403 217.193 73.0373 217.304 73.0848 217.44C73.1322 217.576 73.1261 217.726 73.0679 217.857L70.2003 224.379C70.1459 224.502 70.0516 224.6 69.9341 224.657Z" fill="#FF931D"/>
<path d="M135.601 187.045L76.7739 215.512L77.3377 216.79L136.165 188.323L135.601 187.045Z" fill="#FF931D"/>
<path d="M136.77 189.686L96.7871 209.034L97.3508 210.311L137.334 190.963L136.77 189.686Z" fill="#FF931D"/>
<path d="M115.409 203.232L79.1104 220.797L79.6741 222.075L115.973 204.51L115.409 203.232Z" fill="#FF931D"/>
<path d="M94.6001 210.095L77.9424 218.156L78.5061 219.434L95.1639 211.373L94.6001 210.095Z" fill="#FF931D"/>
<path d="M137.939 192.339L117.192 202.378L117.756 203.656L138.503 193.617L137.939 192.339Z" fill="#FF931D"/>
<path d="M77.8115 242.439C77.0049 242.829 76.1059 242.96 75.2282 242.815C74.3505 242.671 73.5336 242.256 72.8808 241.625C72.228 240.994 71.7687 240.174 71.561 239.269C71.3533 238.364 71.4064 237.416 71.7138 236.542C72.0212 235.669 72.569 234.911 73.2878 234.365C74.0066 233.818 74.8642 233.506 75.7521 233.47C76.6399 233.434 77.5181 233.674 78.2755 234.16C79.0329 234.647 79.6355 235.358 80.0071 236.203C80.5047 237.335 80.5529 238.627 80.1413 239.797C79.7296 240.966 78.8917 241.916 77.8115 242.439ZM74.4848 234.893C73.8641 235.192 73.3423 235.678 72.9853 236.288C72.6283 236.898 72.4523 237.606 72.4794 238.321C72.5065 239.036 72.7355 239.726 73.1376 240.305C73.5397 240.884 74.0966 241.324 74.738 241.571C75.3793 241.818 76.0762 241.861 76.7404 241.693C77.4047 241.525 78.0064 241.154 78.4694 240.628C78.9324 240.101 79.2359 239.443 79.3414 238.736C79.447 238.029 79.3498 237.305 79.0623 236.656C78.6776 235.787 77.9797 235.114 77.1215 234.783C76.2634 234.453 75.3152 234.492 74.4848 234.893Z" fill="#F7D4AA"/>
<path d="M76.5675 239.687C76.5047 239.716 76.4367 239.731 76.3679 239.731C76.2991 239.731 76.2312 239.716 76.1683 239.687L73.5069 238.635C73.3781 238.584 73.2739 238.481 73.2171 238.35C73.1603 238.219 73.1557 238.069 73.2042 237.934C73.2527 237.799 73.3505 237.69 73.4759 237.631C73.6012 237.571 73.7441 237.566 73.8729 237.617L76.0951 238.495L78.7565 232.433C78.8142 232.309 78.9153 232.212 79.039 232.163C79.1626 232.113 79.2996 232.116 79.4218 232.169C79.5409 232.229 79.6338 232.334 79.6819 232.464C79.73 232.593 79.7298 232.736 79.6813 232.865L76.8137 239.387C76.7935 239.452 76.7613 239.511 76.7191 239.563C76.6768 239.614 76.6253 239.656 76.5675 239.687Z" fill="#FF931D"/>
<path d="M142.236 202.08L83.4087 230.547L83.9724 231.825L142.8 203.358L142.236 202.08Z" fill="#FF931D"/>
<path d="M143.399 204.724L103.416 224.072L103.98 225.349L143.963 206.001L143.399 204.724Z" fill="#FF931D"/>
<path d="M122.032 218.273L85.7393 235.835L86.303 237.113L122.596 219.55L122.032 218.273Z" fill="#FF931D"/>
<path d="M101.232 225.124L84.5742 233.185L85.138 234.462L101.796 226.402L101.232 225.124Z" fill="#FF931D"/>
<path d="M144.571 207.368L123.824 217.407L124.388 218.685L145.135 208.645L144.571 207.368Z" fill="#FF931D"/>
<path d="M148.574 216.437L95.0801 242.323L95.7778 243.905L149.272 218.019L148.574 216.437Z" fill="#D83E3A"/>
<path d="M150.283 220.308L78.4219 255.081L79.1196 256.663L150.981 221.889L150.283 220.308Z" fill="#D83E3A"/>
<path d="M122.568 238.417L80.126 258.954L80.8237 260.535L123.265 239.998L122.568 238.417Z" fill="#D83E3A"/>
<path d="M153.694 228.051L81.833 262.825L82.5307 264.406L154.392 229.633L153.694 228.051Z" fill="#D83E3A"/>
<path d="M155.399 231.917L123.298 247.451L123.996 249.032L156.097 233.498L155.399 231.917Z" fill="#D83E3A"/>
<path d="M157.121 235.792L85.2598 270.565L85.9575 272.146L157.819 237.373L157.121 235.792Z" fill="#D83E3A"/>
<path d="M139.213 249.153L86.9629 274.437L87.6606 276.019L139.911 250.735L139.213 249.153Z" fill="#D83E3A"/>
<path d="M158.823 239.661L142.4 247.608L143.098 249.189L159.52 241.243L158.823 239.661Z" fill="#D83E3A"/>
<path d="M117.927 250.053L83.542 266.692L84.2397 268.273L118.624 251.635L117.927 250.053Z" fill="#D83E3A"/>
<path d="M151.985 224.178L125.767 236.865L126.464 238.447L152.683 225.76L151.985 224.178Z" fill="#D83E3A"/>
<path d="M105.402 143.208L68.1064 161.255L69.1558 163.634L106.451 145.586L105.402 143.208Z" fill="#FFC82E"/>
<path d="M118.245 148.455L72.2705 170.702L73.3198 173.081L119.295 150.834L118.245 148.455Z" fill="#FFC82E"/>
<path d="M93.1906 155.15L70.2998 166.227L71.3491 168.605L94.2399 157.528L93.1906 155.15Z" fill="#FFC82E"/>
<path d="M118.858 142.73L95.9673 153.807L97.0166 156.185L119.907 145.108L118.858 142.73Z" fill="#FFC82E"/>
<path d="M86.9598 169.025L74.2461 175.177L75.2954 177.555L88.0092 171.403L86.9598 169.025Z" fill="#FFC82E"/>
<path d="M124.781 156.156L112.067 162.308L113.117 164.686L125.83 158.534L124.781 156.156Z" fill="#FFC82E"/>
<path d="M108.143 164.213L76.2231 179.659L77.2725 182.037L109.193 166.591L108.143 164.213Z" fill="#FFC82E"/>
<path d="M122.803 151.684L89.5361 167.781L90.5855 170.16L123.853 154.062L122.803 151.684Z" fill="#FFC82E"/>
<path d="M60.6208 158.903L38.0078 169.845L51.5152 200.459L74.1281 189.517L60.6208 158.903Z" fill="#385D93"/>
<path d="M65.0234 183.833C68.41 183.394 73.5797 191.289 73.5797 191.289C73.5797 191.289 72.9143 193.957 69.5344 195.567L65.0234 183.833Z" fill="#D83E3A"/>
<path d="M64.6975 224.727C64.6975 224.727 65.4427 224.622 66.6403 224.392L67.3057 224.26C71.6304 223.361 80.1733 221.034 83.154 216.261C83.2186 216.164 83.2786 216.064 83.3337 215.961L82.9012 215.181C82.7349 214.874 82.5219 214.484 82.2358 214.024L81.138 212.045L80.4727 210.882L79.3682 208.91C79.162 208.534 78.9491 208.143 78.7029 207.753L77.5918 205.774L77.3922 205.412L76.9464 204.625L75.842 202.646C75.629 202.263 75.4095 201.879 75.1766 201.489L74.0589 199.517C73.8459 199.127 73.6264 198.751 73.3935 198.368L73.0941 197.838L72.2757 196.389L71.9963 195.901L71.6171 195.239C71.6171 195.239 71.6171 195.239 71.6171 195.204C71.4374 194.898 71.2578 194.591 71.0914 194.285L70.6922 193.588L70.5059 193.26C70.3928 193.065 70.2797 192.87 70.1733 192.668C70.0668 192.466 69.9803 192.348 69.8872 192.18L69.8473 192.111C69.8223 192.071 69.8 192.029 69.7807 191.985L69.2485 191.072C69.1154 190.849 68.989 190.62 68.8626 190.376C68.816 190.285 68.7628 190.201 68.7095 190.118C68.4833 189.728 68.2638 189.344 68.0442 188.975C67.645 188.278 67.2524 187.63 66.8865 187.017C66.6536 186.62 66.4274 186.244 66.2212 185.881C65.7887 185.185 65.3895 184.488 65.0369 183.937L64.9504 183.798L64.3715 183.875L64.0655 183.91L62.0695 184.153L61.2511 184.251H61.1114L60.3662 184.342L56.4673 186.23L56.2478 186.446L55.7221 186.954L55.3429 187.324L53.5664 189.059L53.1406 189.47C53.2072 189.686 53.4334 190.466 53.806 191.665C53.9191 192.048 54.0521 192.48 54.1852 192.947L54.8505 195.128C54.9503 195.441 55.0435 195.762 55.1433 196.089C55.1433 196.194 55.2032 196.298 55.2364 196.41C55.3229 196.695 55.4161 196.988 55.5026 197.288C55.5891 197.587 55.6689 197.817 55.7487 198.089L55.9084 198.591C55.9617 198.772 56.0149 198.953 56.0748 199.127L56.2943 199.873V199.908C56.4008 200.249 56.5072 200.604 56.6137 200.953C56.6869 201.211 56.7667 201.454 56.8399 201.705C56.8798 201.817 56.9064 201.928 56.9397 202.04C57.0195 202.284 57.0927 202.527 57.1726 202.778C57.2524 203.029 57.2857 203.134 57.3389 203.315L57.3988 203.517C57.5984 204.165 57.8046 204.827 58.0176 205.489L58.5166 206.903C58.7428 207.6 58.9756 208.352 59.1819 209.07L59.5878 210.345C59.8273 211.042 60.0535 211.788 60.2531 212.498L60.6723 213.773C60.9118 214.505 61.1513 215.223 61.3842 215.926C61.5305 216.358 61.6769 216.776 61.8166 217.195C62.0695 217.933 62.3223 218.651 62.5618 219.334L63.0142 220.595C63.3003 221.368 63.5665 222.079 63.8127 222.685C63.9923 223.138 64.1719 223.563 64.3316 223.932C64.3431 223.971 64.3587 224.009 64.3782 224.044C64.5046 224.323 64.6044 224.539 64.6975 224.727Z" fill="#D83E3A"/>
<path d="M53.1936 189.553C51.3972 191.302 50 203.224 50 203.224C50 203.224 54.7239 205.377 58.3034 205.712L58.2635 201.078L53.1936 189.553Z" fill="#D83E3A"/>
<path d="M47.1524 175.548C46.8518 175.034 46.6569 174.46 46.5802 173.862C46.544 173.568 46.5745 173.269 46.6693 172.989C46.7641 172.709 46.9205 172.457 47.1258 172.253C46.9788 172.2 46.8519 172.099 46.7644 171.965C46.6768 171.83 46.6332 171.67 46.6401 171.507C46.652 171.347 46.7138 171.196 46.816 171.076C46.9182 170.956 47.0551 170.875 47.2056 170.845C47.84 169.27 48.8531 167.894 50.1462 166.852C51.4393 165.809 52.9683 165.135 54.5842 164.895C55.0256 164.805 55.4806 164.822 55.9149 164.943C56.1309 165.002 56.3303 165.114 56.496 165.271C56.6616 165.427 56.7887 165.623 56.8663 165.842C57.3018 165.567 57.8135 165.455 58.3177 165.525C58.8218 165.595 59.2884 165.842 59.6408 166.225C59.9827 166.626 60.1883 167.134 60.2256 167.669C60.2629 168.205 60.1298 168.739 59.8471 169.187C60.0464 169.329 60.2107 169.519 60.3264 169.74C60.442 169.962 60.5058 170.209 60.5124 170.462C60.5159 170.965 60.4278 171.464 60.2529 171.932C59.451 174.425 58.0808 176.676 56.2609 178.489C55.8021 178.942 55.3178 179.365 54.8105 179.757C54.5576 179.945 54.2981 180.126 54.0387 180.3C53.7792 180.475 53.5197 180.739 53.2935 180.76C52.9819 180.705 52.6822 180.591 52.4086 180.426C52.1225 180.3 51.8364 180.161 51.5636 180.008C49.7358 178.983 48.2226 177.437 47.199 175.548H47.1524Z" fill="black"/>
<path d="M61.6635 174.768C62.1356 176.115 62.0879 177.603 61.5304 178.914C61.2693 179.482 60.976 180.034 60.6522 180.565C59.9868 181.729 59.6608 182.572 60.6522 184.892C60.6698 185.384 60.548 185.871 60.3021 186.29C60.0562 186.71 59.6972 187.044 59.2703 187.25C58.8435 187.457 58.3678 187.526 57.9033 187.45C57.4389 187.374 57.0063 187.155 56.6601 186.822C55.6527 184.503 54.2732 182.382 52.5816 180.551C52.2955 180.245 52.0893 180.05 52.0094 179.973L51.9695 179.938C51.9695 179.938 51.7632 179.436 51.4771 178.698L51.364 178.412C50.6987 176.67 49.734 173.89 49.8072 172.713C50.0866 168.392 56.9329 166.504 58.6428 169.013C59.934 170.752 60.9536 172.694 61.6635 174.768Z" fill="#FEA384"/>
<path d="M58.8358 168.427C58.6377 168.875 58.3273 169.258 57.9376 169.535C56.1884 170.951 54.0757 171.788 51.8697 171.939C51.9805 172.009 52.0665 172.115 52.1151 172.24C52.1637 172.366 52.1721 172.505 52.1392 172.636C52.1062 172.767 52.0336 172.883 51.9323 172.967C51.8309 173.051 51.7063 173.099 51.577 173.103C52.0948 173.804 52.382 174.662 52.3954 175.548C52.3899 176.394 52.1135 177.214 51.6103 177.876C51.4702 178.098 51.2532 178.256 51.0048 178.315C50.6056 178.363 50.2929 177.966 50.06 177.618C49.235 176.329 48.39 174.942 48.3501 173.395C48.3598 172.628 48.5305 171.873 48.8502 171.183C49.1698 170.493 49.6306 169.885 50.1997 169.403C51.3456 168.447 52.6943 167.795 54.1319 167.501C54.9588 167.277 55.8159 167.202 56.6668 167.278C57.4974 167.378 58.2665 167.786 58.8358 168.427Z" fill="black"/>
<path d="M58.2037 173.103C58.3685 172.803 58.6254 172.571 58.9324 172.445C59.2394 172.318 59.5783 172.304 59.8937 172.406C59.9562 172.429 60.009 172.475 60.043 172.535C60.077 172.594 60.09 172.665 60.08 172.733C60.0776 172.766 60.0681 172.798 60.0521 172.827C60.0361 172.855 60.0141 172.879 59.9877 172.898C59.9614 172.916 59.9314 172.927 59.9001 172.931C59.8688 172.936 59.837 172.932 59.8072 172.921C59.6746 172.881 59.5357 172.869 59.3986 172.886C59.2615 172.903 59.129 172.948 59.0088 173.019C58.8872 173.088 58.7807 173.183 58.6961 173.298C58.6162 173.395 58.563 173.535 58.4166 173.521C58.381 173.519 58.3465 173.507 58.3168 173.486C58.2561 173.448 58.2109 173.388 58.19 173.317C58.1691 173.246 58.174 173.17 58.2037 173.103Z" fill="black"/>
<path d="M56.62 173.869C56.2503 173.823 55.8758 173.894 55.5449 174.073C55.214 174.251 54.9419 174.53 54.7637 174.872C54.7474 174.904 54.7372 174.938 54.7338 174.974C54.7303 175.01 54.7336 175.046 54.7435 175.08C54.7534 175.115 54.7697 175.146 54.7914 175.174C54.8131 175.202 54.8399 175.225 54.8701 175.242C54.9331 175.274 55.0055 175.28 55.0724 175.258C55.1393 175.236 55.1956 175.187 55.2294 175.123C55.3766 174.843 55.6115 174.624 55.8948 174.503C56.0421 174.446 56.1969 174.413 56.3538 174.405C56.4869 174.405 56.6399 174.44 56.7397 174.308C56.764 174.275 56.7821 174.237 56.793 174.196C56.8081 174.129 56.7987 174.058 56.7668 173.998C56.7348 173.937 56.6825 173.891 56.62 173.869Z" fill="black"/>
<path d="M59.2683 177.541C59.502 177.424 59.7068 177.252 59.8671 177.039C59.905 176.988 59.9218 176.922 59.9137 176.858C59.9056 176.793 59.8732 176.734 59.8238 176.694C59.7744 176.655 59.712 176.637 59.6502 176.646C59.5884 176.654 59.5324 176.688 59.4945 176.74C59.3285 176.954 59.1013 177.107 58.8462 177.176C58.5911 177.245 58.3216 177.226 58.0773 177.123C58.0507 177.107 58.0213 177.096 57.9908 177.092C57.9603 177.088 57.9293 177.09 57.8996 177.099C57.8699 177.107 57.8421 177.121 57.8178 177.141C57.7935 177.161 57.7731 177.186 57.758 177.214C57.7291 177.271 57.7227 177.338 57.7401 177.4C57.7574 177.463 57.7972 177.516 57.8511 177.548C58.0732 177.656 58.3155 177.712 58.5604 177.71C58.8054 177.709 59.0471 177.651 59.2683 177.541Z" fill="#C16B5B"/>
<path d="M59.1815 176.036C59.1881 176.026 59.1916 176.013 59.1916 176.001C59.1916 175.989 59.1881 175.977 59.1815 175.966C59.1217 175.555 58.9553 175.492 58.8156 175.506C58.7366 175.525 58.6625 175.562 58.5982 175.614C58.5339 175.665 58.481 175.731 58.443 175.806C58.439 175.819 58.4389 175.832 58.4429 175.845C58.4468 175.858 58.4546 175.869 58.465 175.877C58.4754 175.885 58.488 175.889 58.5008 175.889C58.5136 175.888 58.526 175.884 58.5362 175.876C58.5662 175.815 58.6086 175.761 58.6603 175.719C58.712 175.677 58.7718 175.647 58.8356 175.632C58.9553 175.632 59.0285 175.736 59.0684 175.987C59.0691 175.995 59.0715 176.003 59.0754 176.01C59.0793 176.017 59.0846 176.023 59.0909 176.028C59.0972 176.032 59.1045 176.035 59.1121 176.037C59.1197 176.038 59.1275 176.038 59.135 176.036H59.1815Z" fill="#C16B5B"/>
<path d="M56.0876 175.946C56.1231 176.025 56.1805 176.093 56.2524 176.138C56.3244 176.184 56.4077 176.207 56.4919 176.203C56.576 176.199 56.6572 176.169 56.7252 176.117C56.7932 176.065 56.8448 175.993 56.8737 175.91C56.9026 175.827 56.9073 175.737 56.8873 175.652C56.8674 175.566 56.8236 175.488 56.7615 175.429C56.6994 175.369 56.6219 175.33 56.5386 175.317C56.4554 175.303 56.3702 175.316 56.2938 175.353C56.1915 175.403 56.1123 175.494 56.0736 175.605C56.035 175.716 56.04 175.838 56.0876 175.946Z" fill="black"/>
<path d="M56.4268 175.646C56.4345 175.666 56.4463 175.684 56.4612 175.699C56.4762 175.714 56.494 175.725 56.5134 175.733C56.5329 175.74 56.5537 175.743 56.5743 175.741C56.5949 175.739 56.6149 175.733 56.633 175.722C56.6514 175.713 56.6678 175.7 56.6814 175.685C56.695 175.669 56.7055 175.65 56.7123 175.63C56.7191 175.61 56.7221 175.589 56.721 175.568C56.72 175.547 56.7149 175.526 56.7062 175.506C56.6975 175.487 56.6852 175.47 56.6701 175.456C56.655 175.442 56.6374 175.431 56.6182 175.423C56.5991 175.416 56.5788 175.413 56.5585 175.414C56.5382 175.415 56.5183 175.421 56.4999 175.43C56.4814 175.439 56.4648 175.452 56.4511 175.467C56.4374 175.483 56.4268 175.502 56.4199 175.522C56.4131 175.542 56.4102 175.563 56.4114 175.584C56.4126 175.606 56.4178 175.627 56.4268 175.646Z" fill="white"/>
<path d="M59.0817 174.496C59.1172 174.576 59.1746 174.643 59.2466 174.689C59.3185 174.735 59.4019 174.757 59.486 174.754C59.5702 174.75 59.6514 174.72 59.7193 174.668C59.7873 174.616 59.839 174.544 59.8679 174.461C59.8967 174.378 59.9014 174.288 59.8815 174.202C59.8615 174.117 59.8177 174.039 59.7556 173.979C59.6936 173.92 59.616 173.881 59.5327 173.867C59.4495 173.854 59.3643 173.867 59.288 173.904C59.1856 173.954 59.1064 174.044 59.0678 174.155C59.0291 174.266 59.0341 174.389 59.0817 174.496Z" fill="black"/>
<path d="M59.4209 174.196C59.4287 174.216 59.4404 174.235 59.4554 174.249C59.4703 174.264 59.4881 174.276 59.5076 174.283C59.5271 174.29 59.5478 174.293 59.5684 174.291C59.589 174.29 59.609 174.283 59.6271 174.273C59.6455 174.264 59.6619 174.251 59.6756 174.235C59.6892 174.219 59.6997 174.201 59.7065 174.181C59.7133 174.161 59.7162 174.14 59.7152 174.118C59.7141 174.097 59.7091 174.076 59.7003 174.057C59.6916 174.038 59.6793 174.021 59.6642 174.006C59.6491 173.992 59.6315 173.981 59.6124 173.974C59.5932 173.967 59.5729 173.964 59.5526 173.965C59.5323 173.966 59.5124 173.971 59.4941 173.98C59.4756 173.989 59.459 174.002 59.4452 174.018C59.4315 174.034 59.4209 174.052 59.4141 174.072C59.4073 174.092 59.4044 174.114 59.4055 174.135C59.4067 174.156 59.4119 174.177 59.4209 174.196Z" fill="white"/>
<path d="M50.6786 180.718C50.932 180.775 51.1956 180.756 51.4392 180.664C51.6828 180.571 51.8964 180.408 52.0555 180.194C52.2146 179.979 52.3127 179.722 52.3386 179.452C52.3645 179.182 52.317 178.91 52.2018 178.667C52.0865 178.424 51.908 178.22 51.6869 178.078C51.4658 177.936 51.211 177.863 50.9519 177.866C50.6927 177.869 50.4396 177.949 50.2218 178.096C50.004 178.243 49.8302 178.452 49.7205 178.698C49.5954 179.099 49.6257 179.535 49.8049 179.913C49.9841 180.291 50.2978 180.58 50.6786 180.718Z" fill="#FEA384"/>
<path d="M50.2196 178.858C50.3217 178.733 50.4497 178.634 50.5938 178.569C50.738 178.504 50.8944 178.474 51.0512 178.482C51.1987 178.477 51.3449 178.511 51.477 178.579C51.5499 178.622 51.612 178.682 51.6583 178.755C51.7046 178.827 51.7337 178.91 51.7432 178.997C51.7474 179.135 51.7127 179.271 51.6434 179.387C51.6033 179.461 51.5762 179.541 51.5635 179.624C51.559 179.682 51.5719 179.741 51.6006 179.791C51.6292 179.841 51.6721 179.88 51.7232 179.903C51.7748 179.922 51.8307 179.926 51.8839 179.912C51.9372 179.898 51.9854 179.869 52.0226 179.826C52.0332 179.814 52.0461 179.805 52.0604 179.798C52.0747 179.792 52.0902 179.788 52.1058 179.788C52.1214 179.788 52.1369 179.792 52.1512 179.798C52.1655 179.805 52.1784 179.814 52.189 179.826C52.2105 179.85 52.2225 179.881 52.2225 179.914C52.2225 179.946 52.2105 179.977 52.189 180.001C52.1428 180.055 52.0861 180.097 52.0226 180.126C51.9438 180.166 51.8561 180.184 51.7687 180.176C51.6813 180.169 51.5973 180.138 51.5254 180.085C51.4535 180.033 51.3963 179.961 51.3597 179.877C51.3231 179.794 51.3085 179.702 51.3174 179.61C51.3314 179.5 51.3652 179.394 51.4172 179.297C51.4649 179.217 51.4924 179.126 51.497 179.032C51.4915 178.985 51.4754 178.941 51.4499 178.902C51.4244 178.863 51.3904 178.831 51.3506 178.809C51.3129 178.788 51.2726 178.771 51.2309 178.76C51.1183 178.809 51.0279 178.902 50.978 179.018C50.959 179.079 50.9533 179.144 50.9614 179.208C50.9694 179.272 50.991 179.333 51.0246 179.387C51.0462 179.411 51.0582 179.442 51.0582 179.475C51.0582 179.507 51.0462 179.538 51.0246 179.562C50.9992 179.572 50.9712 179.574 50.9448 179.566C50.9184 179.559 50.895 179.542 50.8782 179.52C50.8248 179.434 50.7899 179.338 50.7761 179.237C50.7623 179.135 50.7699 179.032 50.7984 178.935C50.8262 178.866 50.8644 178.802 50.9115 178.746C50.7274 178.773 50.5591 178.87 50.4391 179.018C50.3666 179.104 50.3266 179.214 50.3266 179.328C50.3266 179.443 50.3666 179.553 50.4391 179.638C50.4542 179.648 50.4671 179.66 50.4769 179.675C50.4868 179.69 50.4934 179.708 50.4963 179.726C50.4992 179.744 50.4983 179.762 50.4936 179.78C50.489 179.797 50.4807 179.814 50.4694 179.828C50.4581 179.842 50.444 179.853 50.4281 179.86C50.4122 179.868 50.3949 179.872 50.3775 179.872C50.36 179.872 50.3428 179.867 50.327 179.86C50.3112 179.852 50.2972 179.841 50.2861 179.826C50.1569 179.706 50.0776 179.537 50.0652 179.356C50.0528 179.175 50.1081 178.997 50.2196 178.858Z" fill="#C16B5B"/>
<path d="M56.1014 186.711L55.9883 185.317L59.3815 187.198L58.5299 189.763L56.1014 186.711Z" fill="#AD2727"/>
<path d="M61.1511 184.272L60.213 183.276L59.3813 187.198L61.7965 188.188L61.1511 184.272Z" fill="#AD2727"/>
<path d="M134.736 94.1451L132.479 87.8503L104.481 98.8598L106.738 105.155L134.736 94.1451Z" fill="#821919"/>
<path d="M199.142 65.2349C196.551 58.0116 191.972 51.7553 185.985 47.2569C179.998 42.7586 172.872 40.2202 165.508 39.9627C158.144 39.7051 150.872 41.7401 144.612 45.8102C138.352 49.8802 133.385 55.8027 130.339 62.8289C127.293 69.855 126.304 77.6692 127.498 85.2837C128.692 92.8981 132.016 99.9709 137.048 105.608C142.079 111.244 148.594 115.192 155.769 116.952C162.943 118.711 170.454 118.204 177.353 115.493C186.599 111.845 194.086 104.504 198.17 95.0824C202.255 85.6604 202.605 74.9264 199.142 65.2349ZM135.27 90.3676C133.118 84.3592 132.715 77.8173 134.114 71.5694C135.512 65.3214 138.648 59.6482 143.126 55.2672C147.604 50.8862 153.221 47.9943 159.268 46.9572C165.316 45.9202 171.521 46.7847 177.099 49.4413C182.677 52.0978 187.377 56.4272 190.605 61.8817C193.833 67.3363 195.444 73.6709 195.234 80.0844C195.024 86.4979 193.003 92.7021 189.426 97.9122C185.848 103.122 180.876 107.104 175.137 109.355C167.443 112.366 158.923 112.057 151.445 108.498C143.967 104.938 138.143 98.4182 135.25 90.3676H135.27Z" fill="#385D93"/>
<g style="mix-blend-mode:multiply">
<path d="M196.428 66.3011C194.037 59.6391 189.813 53.8692 184.291 49.7208C178.769 45.5725 172.197 43.2319 165.404 42.995C158.612 42.7582 151.905 44.6357 146.132 48.3902C140.359 52.1447 135.778 57.6075 132.969 64.0881C130.16 70.5688 129.249 77.7761 130.351 84.7989C131.453 91.8218 134.518 98.3448 139.16 103.543C143.801 108.742 149.81 112.382 156.427 114.005C163.044 115.627 169.972 115.158 176.335 112.658C184.862 109.291 191.766 102.52 195.532 93.8295C199.299 85.1394 199.621 75.2395 196.428 66.3011ZM135.25 90.3677C133.1 84.3599 132.698 77.8191 134.097 71.5725C135.496 65.3258 138.632 59.6539 143.109 55.2737C147.586 50.8936 153.202 48.0021 159.248 46.9647C165.294 45.9273 171.498 46.7907 177.076 49.4457C182.653 52.1007 187.354 56.4281 190.583 61.8807C193.812 67.3332 195.425 73.6661 195.217 80.0785C195.01 86.491 192.991 92.695 189.417 97.9061C185.843 103.117 180.874 107.101 175.137 109.355C167.443 112.366 158.923 112.057 151.445 108.498C143.967 104.939 138.143 98.4183 135.25 90.3677Z" fill="#CDDFFA"/>
</g>
<path opacity="0.3" d="M186.156 101.895C198.254 89.2261 198.254 68.685 186.156 56.0157C174.059 43.3463 154.444 43.3463 142.347 56.0157C130.249 68.685 130.249 89.2261 142.347 101.895C154.444 114.565 174.059 114.565 186.156 101.895Z" fill="#385D93"/>
<path d="M63.3471 118.65C62.7666 117.032 62.8232 115.239 63.5044 113.664C64.1855 112.09 65.4355 110.863 66.9798 110.254L111.704 92.667L116.082 104.868L71.3577 122.454C70.5933 122.756 69.7795 122.897 68.963 122.869C68.1464 122.841 67.3431 122.645 66.5991 122.292C65.8551 121.938 65.1849 121.435 64.6268 120.81C64.0688 120.185 63.6339 119.451 63.3471 118.65Z" fill="#D83E3A"/>
<g style="mix-blend-mode:multiply">
<path d="M114.924 101.69L70.207 119.277C68.9299 119.778 67.531 119.826 66.2254 119.413C64.9199 119 63.7801 118.149 62.9814 116.991C63.0293 117.571 63.1524 118.14 63.3474 118.685C63.927 120.296 65.0926 121.601 66.589 122.314C68.0855 123.027 69.7907 123.09 71.3314 122.489L116.055 104.902L114.924 101.69Z" fill="#D83E3A"/>
</g>
<g style="mix-blend-mode:overlay" opacity="0.3">
<path d="M174.286 51.5572C164.838 48.4565 154.991 50.0312 147.493 57.0826C143.028 61.2633 148.517 69.3319 153.041 65.0746C157.852 60.5525 164.026 58.4692 170.387 60.5526C176.142 62.4269 180.101 53.4524 174.286 51.5572Z" fill="white"/>
</g>
<path d="M176.281 84.4384H176.86C176.481 84.4309 176.281 84.4384 176.281 84.4384Z" fill="white"/>
<path d="M183.6 77.3521C183.6 78.8013 183.46 82.4106 182.562 83.3513C181.664 84.2919 178.217 84.4243 176.833 84.4383C178.217 84.4383 181.664 84.5846 182.562 85.5252C183.46 86.4659 183.587 90.0752 183.6 91.5245C183.6 90.0752 183.74 86.4659 184.638 85.5252C185.536 84.5846 188.983 84.4522 190.366 84.4383C188.983 84.4383 185.536 84.2919 184.638 83.3513C183.74 82.4106 183.6 78.8013 183.6 77.3521Z" fill="white"/>
<path d="M27.6655 245.986V245.38C27.6579 245.749 27.6655 245.986 27.6655 245.986Z" fill="white"/>
<path d="M27.6647 231.207C27.6647 232.65 27.5184 236.259 26.6202 237.2C25.722 238.14 22.2755 238.273 20.8916 238.293C22.2755 238.293 25.722 238.44 26.6202 239.38C27.5184 240.321 27.6448 243.93 27.6647 245.38C27.6647 243.93 27.8045 240.321 28.7027 239.38C29.6009 238.44 33.0473 238.307 34.4312 238.293C33.0473 238.293 29.6009 238.14 28.7027 237.2C27.8045 236.259 27.678 232.684 27.6647 231.207Z" fill="white"/>
<path d="M56.0546 74.6345C56.0546 76.0768 55.9149 79.6931 55.0166 80.6268C54.1184 81.5605 50.672 81.6998 49.2881 81.7207C50.672 81.7207 54.1184 81.8671 55.0166 82.8077C55.9149 83.7483 56.0413 87.3576 56.0546 88.8069C56.0546 87.3576 56.1943 83.7483 57.0925 82.8077C57.9907 81.8671 61.4372 81.7347 62.8211 81.7207C61.4372 81.7207 57.9907 81.5674 57.0925 80.6268C56.1943 79.6862 56.0679 76.0768 56.0546 74.6345Z" fill="white"/>
<path d="M56.0547 74.0215V74.6347C56.0623 74.2584 56.0547 74.0215 56.0547 74.0215Z" fill="white"/>
<path d="M133.261 29.5044C133.261 30.9537 133.121 34.563 132.223 35.5036C131.324 36.4443 127.878 36.5767 126.494 36.5906C127.878 36.5906 131.324 36.7369 132.223 37.6776C133.121 38.6182 133.247 42.2275 133.261 43.6768C133.261 42.2275 133.407 38.6182 134.305 37.6776C135.203 36.7369 138.65 36.6045 140.034 36.5906C138.65 36.5906 135.203 36.4443 134.305 35.5036C133.407 34.563 133.281 30.9537 133.261 29.5044Z" fill="white"/>
<path d="M133.26 28.8982V29.5044C133.268 29.1281 133.26 28.8982 133.26 28.8982Z" fill="white"/>
<path d="M140.612 36.5906H140.033C140.386 36.5981 140.612 36.5906 140.612 36.5906Z" fill="white"/>
<path d="M242.869 230.594V229.988C242.861 230.343 242.869 230.594 242.869 230.594Z" fill="white"/>
<path d="M242.868 215.794C242.868 217.244 242.722 220.853 241.83 221.794C240.939 222.734 237.479 222.867 236.102 222.881C237.479 222.881 240.932 223.027 241.83 223.968C242.728 224.908 242.855 228.518 242.868 229.967C242.868 228.518 243.008 224.908 243.906 223.968C244.804 223.027 248.251 222.895 249.635 222.881C248.251 222.881 244.804 222.734 243.906 221.794C243.008 220.853 242.881 217.244 242.868 215.794Z" fill="white"/>
<path d="M142.289 139.769C142.289 141.219 142.149 144.828 141.251 145.769C140.353 146.709 136.906 146.842 135.522 146.856C136.906 146.856 140.353 147.002 141.251 147.942C142.149 148.883 142.276 152.492 142.289 153.942C142.289 152.492 142.435 148.883 143.334 147.942C144.232 147.002 147.678 146.869 149.062 146.856C147.678 146.856 144.232 146.709 143.334 145.769C142.435 144.828 142.309 141.219 142.289 139.769Z" fill="white"/>
<path d="M142.289 139.163V139.769C142.297 139.393 142.289 139.163 142.289 139.163Z" fill="white"/>
<path d="M149.668 146.855H149.089C149.415 146.863 149.668 146.855 149.668 146.855Z" fill="white"/>
<path d="M186.395 99.635H186.707C186.514 99.5998 186.395 99.635 186.395 99.635Z" fill="white"/>
<path d="M190.373 95.7957C190.373 96.576 190.3 98.534 189.814 99.0426C189.328 99.5513 187.459 99.6279 186.707 99.6349C187.459 99.6349 189.328 99.7115 189.814 100.22C190.3 100.729 190.366 102.687 190.373 103.474C190.373 102.687 190.453 100.729 190.939 100.22C191.424 99.7115 193.294 99.6419 194.039 99.6349C193.294 99.6349 191.424 99.5513 190.939 99.0426C190.453 98.534 190.38 96.576 190.373 95.7957Z" fill="white"/>
<path d="M190.373 95.4612V95.7956C190.381 95.5936 190.373 95.4612 190.373 95.4612Z" fill="white"/>
<path d="M14.8041 170.239V169.905C14.7966 170.107 14.8041 170.239 14.8041 170.239Z" fill="white"/>
<path d="M14.8037 162.226C14.8037 163.013 14.7239 164.971 14.2382 165.48C13.7525 165.989 11.8829 166.058 11.1377 166.065C11.8829 166.065 13.7525 166.149 14.2382 166.658C14.7239 167.166 14.7904 169.124 14.8037 169.905C14.8037 169.124 14.8769 167.166 15.3626 166.658C15.8483 166.149 17.7179 166.072 18.4697 166.065C17.7179 166.065 15.8483 165.989 15.3626 165.48C14.8769 164.971 14.8104 163.006 14.8037 162.226Z" fill="white"/>
<path d="M262.024 145.099V144.772C262.016 144.974 262.024 145.099 262.024 145.099Z" fill="white"/>
<path d="M262.023 137.094C262.023 137.881 261.944 139.832 261.458 140.34C260.972 140.849 259.103 140.926 258.357 140.933C259.103 140.933 260.972 141.009 261.458 141.525C261.944 142.041 262.017 143.985 262.023 144.772C262.023 143.985 262.097 142.034 262.582 141.525C263.068 141.016 264.938 140.94 265.689 140.933C264.938 140.933 263.068 140.849 262.582 140.34C262.097 139.832 262.03 137.881 262.023 137.094Z" fill="white"/>
<path d="M210.213 47.2305C210.213 48.0109 210.134 49.9688 209.648 50.4774C209.162 50.9861 207.293 51.0627 206.547 51.0697C207.293 51.0697 209.162 51.1464 209.648 51.655C210.134 52.1636 210.2 54.1216 210.213 54.9089C210.213 54.1216 210.287 52.1636 210.772 51.655C211.258 51.1464 213.128 51.0767 213.879 51.0697C213.128 51.0697 211.258 50.9861 210.772 50.4774C210.287 49.9688 210.247 48.0387 210.213 47.2305Z" fill="white"/>
<path d="M179.209 252.891C179.209 253.671 179.129 255.629 178.643 256.138C178.158 256.646 176.295 256.723 175.543 256.73C176.295 256.73 178.158 256.807 178.643 257.315C179.129 257.824 179.202 259.782 179.209 260.569C179.209 259.782 179.289 257.824 179.775 257.315C180.26 256.807 182.123 256.737 182.875 256.73C182.123 256.73 180.26 256.646 179.775 256.138C179.289 255.629 179.216 253.657 179.209 252.891Z" fill="white"/>
<path d="M37.9443 142.877C37.9443 143.664 37.8711 145.615 37.3854 146.124C36.8998 146.632 35.0302 146.709 34.2783 146.716C35.0302 146.716 36.8931 146.8 37.3854 147.308C37.8778 147.817 37.9377 149.768 37.9443 150.555C37.9443 149.768 38.0242 147.817 38.5099 147.308C38.9956 146.8 40.8652 146.723 41.6103 146.716C40.8652 146.716 38.9956 146.639 38.5099 146.124C38.0242 145.608 37.951 143.664 37.9443 142.877Z" fill="white"/>
<path d="M41.6103 219.313C41.6103 220.1 41.5372 222.058 41.0515 222.567C40.5658 223.076 38.6962 223.145 37.9443 223.152C38.6962 223.152 40.5591 223.236 41.0515 223.744C41.5438 224.253 41.6037 226.211 41.6103 226.991C41.6103 226.211 41.6902 224.253 42.1759 223.744C42.6616 223.236 44.5312 223.159 45.2764 223.152C44.5312 223.152 42.6616 223.076 42.1759 222.567C41.6902 222.058 41.617 220.1 41.6103 219.313Z" fill="white"/>
</svg>
